<svg width="0" height="0" style="position:absolute" aria-hidden="true">
  <defs>
    <!-- Brand shield -->
    <symbol id="icon-brand-shield" viewBox="0 0 24 24">
      <path d="M12 2 L21 5.5 V11.5 C21 17 17 20.5 12 22 C7 20.5 3 17 3 11.5 V5.5 Z" fill="#3ddc97"/>
      <path d="M12 7 V12 M12 16 V16.01" stroke="#0a1422" stroke-width="2" stroke-linecap="round"/>
    </symbol>

    <!-- Hero center shield with check -->
    <symbol id="icon-shield-check" viewBox="0 0 100 116">
      <path d="M50 2 L94 18 V58 C94 88 74 106 50 114 C26 106 6 88 6 58 V18 Z" fill="#8489f0"/>
      <path d="M50 8 L88 22 V58 C88 84 70 100 50 108 C30 100 12 84 12 58 V22 Z" fill="#9aa0f6"/>
      <path d="M32 56 L46 70 L70 44" stroke="#ffffff" stroke-width="9" stroke-linecap="round" stroke-linejoin="round" fill="none"/>
    </symbol>

    <!-- Browser scan icon -->
    <symbol id="icon-browser-scan" viewBox="0 0 64 64">
      <rect x="6" y="10" width="52" height="38" rx="4" fill="#e3e7fb"/>
      <rect x="6" y="10" width="52" height="9" rx="4" fill="#8489f0"/>
      <circle cx="13" cy="14.5" r="1.6" fill="#fff"/>
      <circle cx="19" cy="14.5" r="1.6" fill="#fff"/>
      <rect x="13" y="26" width="24" height="3" rx="1.5" fill="#b9c0f5"/>
      <rect x="13" y="33" width="16" height="3" rx="1.5" fill="#b9c0f5"/>
      <circle cx="44" cy="38" r="11" fill="#ffffff" stroke="#8489f0" stroke-width="2.5"/>
      <path d="M48 42 L54 48" stroke="#8489f0" stroke-width="3" stroke-linecap="round"/>
      <circle cx="44" cy="38" r="3.5" fill="#3ad6c4"/>
    </symbol>

    <!-- CPU / chip with shield -->
    <symbol id="icon-chip-shield" viewBox="0 0 64 64">
      <rect x="14" y="14" width="36" height="36" rx="5" fill="#e3e7fb"/>
      <rect x="20" y="20" width="24" height="24" rx="3" fill="#c7cdf8"/>
      <g stroke="#8489f0" stroke-width="2.5" stroke-linecap="round">
        <line x1="22" y1="6" x2="22" y2="13"/>
        <line x1="32" y1="6" x2="32" y2="13"/>
        <line x1="42" y1="6" x2="42" y2="13"/>
        <line x1="22" y1="51" x2="22" y2="58"/>
        <line x1="32" y1="51" x2="32" y2="58"/>
        <line x1="42" y1="51" x2="42" y2="58"/>
        <line x1="6" y1="22" x2="13" y2="22"/>
        <line x1="6" y1="32" x2="13" y2="32"/>
        <line x1="6" y1="42" x2="13" y2="42"/>
        <line x1="51" y1="22" x2="58" y2="22"/>
        <line x1="51" y1="32" x2="58" y2="32"/>
        <line x1="51" y1="42" x2="58" y2="42"/>
      </g>
      <path d="M32 22 L41 26 V35 C41 42 37 45.5 32 47 C27 45.5 23 42 23 35 V26 Z" fill="#3ad6c4"/>
      <path d="M27 34.5 L31 38.5 L38 30.5" stroke="#fff" stroke-width="2.6" stroke-linecap="round" stroke-linejoin="round" fill="none"/>
    </symbol>

    <!-- Card with shield -->
    <symbol id="icon-card-shield" viewBox="0 0 64 64">
      <rect x="6" y="16" width="44" height="30" rx="5" fill="#e3e7fb"/>
      <rect x="6" y="22" width="44" height="6" fill="#8489f0"/>
      <rect x="12" y="36" width="14" height="4" rx="2" fill="#c7cdf8"/>
      <circle cx="46" cy="42" r="14" fill="#ffffff" stroke="#3ad6c4" stroke-width="2"/>
      <path d="M46 32 L54 35 V42 C54 47.5 50.5 50.7 46 52 C41.5 50.7 38 47.5 38 42 V35 Z" fill="#3ad6c4"/>
      <path d="M42.5 42 L45.5 45 L50 39" stroke="#fff" stroke-width="2.4" stroke-linecap="round" stroke-linejoin="round" fill="none"/>
    </symbol>

    <!-- Monitor with shield -->
    <symbol id="icon-monitor-shield" viewBox="0 0 64 64">
      <rect x="6" y="10" width="40" height="28" rx="3" fill="#e3e7fb"/>
      <rect x="6" y="10" width="40" height="6" fill="#8489f0"/>
      <rect x="12" y="22" width="22" height="2.6" rx="1.3" fill="#b9c0f5"/>
      <rect x="12" y="28" width="16" height="2.6" rx="1.3" fill="#b9c0f5"/>
      <rect x="20" y="40" width="12" height="4" fill="#cfd3f9"/>
      <rect x="14" y="46" width="24" height="3" rx="1.5" fill="#cfd3f9"/>
      <circle cx="46" cy="42" r="14" fill="#ffffff" stroke="#3ad6c4" stroke-width="2"/>
      <path d="M46 32 L54 35 V42 C54 47.5 50.5 50.7 46 52 C41.5 50.7 38 47.5 38 42 V35 Z" fill="#3ad6c4"/>
      <path d="M42.5 42 L45.5 45 L50 39" stroke="#fff" stroke-width="2.4" stroke-linecap="round" stroke-linejoin="round" fill="none"/>
    </symbol>

    <!-- Browser with password / shield -->
    <symbol id="icon-browser-password" viewBox="0 0 64 64">
      <rect x="6" y="12" width="46" height="34" rx="4" fill="#e3e7fb"/>
      <rect x="6" y="12" width="46" height="8" rx="4" fill="#8489f0"/>
      <circle cx="13" cy="16" r="1.6" fill="#fff"/>
      <circle cx="19" cy="16" r="1.6" fill="#fff"/>
      <rect x="13" y="28" width="28" height="9" rx="2" fill="#fff"/>
      <circle cx="18" cy="32.5" r="1.8" fill="#8489f0"/>
      <circle cx="24" cy="32.5" r="1.8" fill="#8489f0"/>
      <circle cx="30" cy="32.5" r="1.8" fill="#8489f0"/>
      <circle cx="36" cy="32.5" r="1.8" fill="#8489f0"/>
      <circle cx="46" cy="42" r="14" fill="#ffffff" stroke="#3ad6c4" stroke-width="2"/>
      <path d="M46 32 L54 35 V42 C54 47.5 50.5 50.7 46 52 C41.5 50.7 38 47.5 38 42 V35 Z" fill="#3ad6c4"/>
      <path d="M42.5 42 L45.5 45 L50 39" stroke="#fff" stroke-width="2.4" stroke-linecap="round" stroke-linejoin="round" fill="none"/>
    </symbol>

    <!-- Lock icon -->
    <symbol id="icon-lock" viewBox="0 0 64 64">
      <rect x="16" y="28" width="32" height="26" rx="5" fill="#8489f0"/>
      <path d="M22 28 V20 C22 13.4 26.7 9 32 9 C37.3 9 42 13.4 42 20 V28" stroke="#c7cdf8" stroke-width="5" fill="none" stroke-linecap="round"/>
      <circle cx="32" cy="39" r="4.5" fill="#fff"/>
      <rect x="29.5" y="41" width="5" height="9" rx="2" fill="#fff"/>
    </symbol>

    <!-- Warning triangle -->
    <symbol id="icon-warning" viewBox="0 0 64 64">
      <path d="M32 8 L58 52 H6 Z" fill="#dfe2fb"/>
      <rect x="29" y="24" width="6" height="14" rx="3" fill="#8489f0"/>
      <circle cx="32" cy="44" r="3.4" fill="#8489f0"/>
    </symbol>

    <!-- Cloud icon -->
    <symbol id="icon-cloud" viewBox="0 0 64 64">
      <path d="M20 44 C12 44 7 38.5 7 32.5 C7 26.5 12 22 18 22 C19.5 14.5 26 9 33.5 9 C42 9 49 15.7 49.5 24.2 C55.5 25.2 60 30.3 60 36.5 C60 42.8 54.8 48 48.4 48 H20 Z" fill="#dfe2fb"/>
      <path d="M32 32 V46" stroke="#8489f0" stroke-width="4" stroke-linecap="round"/>
      <path d="M25 39 L32 46 L39 39" stroke="#8489f0" stroke-width="4" stroke-linecap="round" stroke-linejoin="round" fill="none"/>
    </symbol>

    <!-- Document with check -->
    <symbol id="icon-doc-check" viewBox="0 0 64 64">
      <rect x="14" y="6" width="30" height="40" rx="4" fill="#dfe2fb"/>
      <rect x="20" y="14" width="18" height="2.6" rx="1.3" fill="#b9c0f5"/>
      <rect x="20" y="20" width="18" height="2.6" rx="1.3" fill="#b9c0f5"/>
      <rect x="20" y="26" width="12" height="2.6" rx="1.3" fill="#b9c0f5"/>
      <circle cx="40" cy="42" r="16" fill="#ffffff" stroke="#3ad6c4" stroke-width="2"/>
      <circle cx="40" cy="42" r="11" fill="#3ad6c4"/>
      <path d="M35 42 L39 46 L46 37" stroke="#fff" stroke-width="3" stroke-linecap="round" stroke-linejoin="round" fill="none"/>
    </symbol>

    <!-- Laurel award -->
    <symbol id="icon-laurel" viewBox="0 0 64 64">
      <circle cx="32" cy="28" r="14" fill="#f4e04d"/>
      <path d="M32 18 L36 27 L46 28 L38.5 34.5 L40.5 44 L32 38.5 L23.5 44 L25.5 34.5 L18 28 L28 27 Z" fill="#0d1f33"/>
      <path d="M18 28 C8 34 6 48 10 58" stroke="#3ddc97" stroke-width="3.5" stroke-linecap="round" fill="none"/>
      <path d="M46 28 C56 34 58 48 54 58" stroke="#3ddc97" stroke-width="3.5" stroke-linecap="round" fill="none"/>
      <path d="M11 50 L10 58 L18 56" stroke="#3ddc97" stroke-width="3.5" stroke-linecap="round" stroke-linejoin="round" fill="none"/>
      <path d="M53 50 L54 58 L46 56" stroke="#3ddc97" stroke-width="3.5" stroke-linecap="round" stroke-linejoin="round" fill="none"/>
    </symbol>

    <!-- generic shield check (small) -->
    <symbol id="icon-shield-small" viewBox="0 0 24 24">
      <path d="M12 2 L20 5 V11 C20 16 16.5 19.5 12 21 C7.5 19.5 4 16 4 11 V5 Z" fill="currentColor"/>
      <path d="M8.2 11.3 L10.8 13.9 L15.8 8.4" stroke="#0d1f33" stroke-width="2" stroke-linecap="round" stroke-linejoin="round" fill="none"/>
    </symbol>

    <!-- star -->
    <symbol id="icon-star" viewBox="0 0 24 24">
      <path d="M12 2 L15 9 L22 9.5 L16.5 14 L18.5 21 L12 17 L5.5 21 L7.5 14 L2 9.5 L9 9 Z" fill="currentColor"/>
    </symbol>

    <!-- check (for pricing list) -->
    <symbol id="icon-check-circle" viewBox="0 0 24 24">
      <circle cx="12" cy="12" r="11" fill="none" stroke="currentColor" stroke-width="1.6"/>
      <path d="M7.5 12.3 L10.5 15.3 L16.5 8.5" stroke="currentColor" stroke-width="1.8" stroke-linecap="round" stroke-linejoin="round" fill="none"/>
    </symbol>

    <!-- arrow right -->
    <symbol id="icon-arrow" viewBox="0 0 24 24">
      <path d="M5 12 H19 M13 6 L19 12 L13 18" stroke="currentColor" stroke-width="2" stroke-linecap="round" stroke-linejoin="round" fill="none"/>
    </symbol>

    <!-- chevron down -->
    <symbol id="icon-chevron" viewBox="0 0 24 24">
      <path d="M6 9 L12 15 L18 9" stroke="currentColor" stroke-width="2" stroke-linecap="round" stroke-linejoin="round" fill="none"/>
    </symbol>

    <!-- menu -->
    <symbol id="icon-menu" viewBox="0 0 24 24">
      <path d="M3 6 H21 M3 12 H21 M3 18 H21" stroke="currentColor" stroke-width="2" stroke-linecap="round"/>
    </symbol>

    <!-- phone -->
    <symbol id="icon-phone" viewBox="0 0 24 24">
      <path d="M6.6 10.8c1.4 2.8 3.8 5.2 6.6 6.6l2.2-2.2c.3-.3.7-.4 1-.2 1.2.5 2.5.8 3.8.9.6 0 1 .5 1 1.1v3.5c0 .6-.5 1.1-1.1 1.1C10.5 21.6 2.4 13.5 2.4 4 2.4 3.4 2.9 2.9 3.5 2.9H7c.6 0 1.1.4 1.1 1 .1 1.3.4 2.6.9 3.8.1.4 0 .8-.2 1L6.6 10.8z" fill="none" stroke="currentColor" stroke-width="1.7" stroke-linecap="round" stroke-linejoin="round"/>
    </symbol>

    <!-- mail -->
    <symbol id="icon-mail" viewBox="0 0 24 24">
      <rect x="3" y="5" width="18" height="14" rx="2" fill="none" stroke="currentColor" stroke-width="1.7"/>
      <path d="M4 7 L12 13 L20 7" fill="none" stroke="currentColor" stroke-width="1.7" stroke-linecap="round" stroke-linejoin="round"/>
    </symbol>

    <!-- pin -->
    <symbol id="icon-pin" viewBox="0 0 24 24">
      <path d="M12 22c4-4.5 8-8.6 8-12.5A8 8 0 1 0 4 9.5C4 13.4 8 17.5 12 22Z" fill="none" stroke="currentColor" stroke-width="1.7" stroke-linejoin="round"/>
      <circle cx="12" cy="9.5" r="2.4" fill="none" stroke="currentColor" stroke-width="1.7"/>
    </symbol>

    <!-- apple -->
    <symbol id="icon-apple" viewBox="0 0 24 24">
      <path fill="currentColor" d="M16.4 1.5c.1 1.1-.3 2.1-1 2.9-.7.8-1.8 1.4-2.9 1.3-.1-1.1.4-2.2 1-2.9.7-.8 1.9-1.4 2.9-1.3zM20.6 17.2c-.4 1-.9 1.9-1.6 2.7-.9 1.1-1.9 2.2-3.2 2.2-1.2 0-1.6-.8-3.1-.8-1.5 0-1.9.8-3.1.8-1.3 0-2.3-1.1-3.2-2.2-1.9-2.4-3.4-6.7-1.4-9.7 1-1.5 2.6-2.4 4.2-2.4 1.4 0 2.4.9 3.5.9 1.1 0 1.9-.9 3.5-.9 1.4 0 2.9.8 3.9 2.1-3.4 2-2.9 6.9.5 7.3z"/>
    </symbol>

    <!-- play store -->
    <symbol id="icon-play" viewBox="0 0 24 24">
      <path fill="currentColor" d="M3.6 2.7c-.4.2-.6.6-.6 1.1v16.4c0 .5.2.9.6 1.1l9-9.3-9-9.3zM14 12.5l2.5-2.5-9.2-5.3 6.7 7.8zM14 13.5l-6.7 7.8 9.2-5.3-2.5-2.5zM17.2 11l-2.2 2 2.2 2 3.1-1.8c.5-.3.8-.7.8-1.2s-.3-.9-.8-1.2L17.2 11z"/>
    </symbol>

    <!-- socials -->
    <symbol id="icon-facebook" viewBox="0 0 24 24"><path fill="currentColor" d="M22 12a10 10 0 1 0-11.6 9.9v-7H7.9V12h2.5V9.8c0-2.5 1.5-3.9 3.8-3.9 1.1 0 2.2.2 2.2.2v2.5h-1.3c-1.2 0-1.6.8-1.6 1.6V12h2.8l-.4 2.9h-2.4v7A10 10 0 0 0 22 12z"/></symbol>
    <symbol id="icon-x" viewBox="0 0 24 24"><path fill="currentColor" d="M3 3l7.5 9.3L3.4 21H6l5.8-6.7L16.5 21H21l-7.9-9.8L20.3 3h-2.6l-5.3 6.1L7.6 3H3zm2.5 1.6h2.1l11 14.8h-2.1L5.5 4.6z"/></symbol>
    <symbol id="icon-youtube" viewBox="0 0 24 24"><path fill="currentColor" d="M22 8.1c0-1.6-1.2-2.9-2.8-3-2.4-.2-4.7-.2-7.2-.2-2.5 0-4.8 0-7.2.2-1.6.1-2.8 1.4-2.8 3C1.8 9.6 1.8 11.2 1.8 12.8c0 1.6 0 3.2.2 4.7.1 1.6 1.2 2.9 2.8 3 2.4.2 4.7.2 7.2.2 2.5 0 4.8 0 7.2-.2 1.6-.1 2.8-1.4 2.8-3 .2-1.5.2-3.1.2-4.7 0-1.6 0-3.2-.2-4.7zM9.8 16V9.6l5.6 3.2-5.6 3.2z"/></symbol>
    <symbol id="icon-linkedin" viewBox="0 0 24 24"><path fill="currentColor" d="M19 3H5a2 2 0 0 0-2 2v14a2 2 0 0 0 2 2h14a2 2 0 0 0 2-2V5a2 2 0 0 0-2-2zM8.3 18.1H5.6V9.9h2.7v8.2zM7 8.8c-.9 0-1.5-.6-1.5-1.4S6.1 6 7 6s1.5.6 1.5 1.4S7.9 8.8 7 8.8zm11.1 9.3h-2.7v-4.4c0-1.1-.4-1.8-1.4-1.8-.7 0-1.2.5-1.4 1-.1.2-.1.5-.1.8v4.4h-2.7s0-7.4 0-8.2h2.7v1.2c.4-.6 1-1.4 2.5-1.4 1.8 0 3.1 1.2 3.1 3.7v4.7z"/></symbol>
  </defs>
</svg>
